<?xml version="1.0" encoding="utf-8"?>
<!-- Generator: Adobe Illustrator 22.0.1, SVG Export Plug-In . SVG Version: 6.00 Build 0)  -->
<svg version="1.1" id="Layer_1" xmlns="http://www.w3.org/2000/svg" xmlns:xlink="http://www.w3.org/1999/xlink" x="0px" y="0px"
	 viewBox="0 0 680.3 453.5" style="enable-background:new 0 0 680.3 453.5;" xml:space="preserve">
<style type="text/css">
	.st0{fill:#FFFFFF;stroke:#000000;stroke-miterlimit:10;}
	.st1{fill:#FFFFFF;stroke:#000000;stroke-width:0.1;stroke-miterlimit:10;}
	.st2{fill:#FFFFFF;stroke:#FF0000;stroke-width:1.000000e-02;stroke-miterlimit:10;}
	.st3{fill:none;stroke:#FF0000;stroke-width:1.000000e-02;stroke-miterlimit:10;}
</style>
<g>
	<line class="st0" x1="289.6" y1="108.8" x2="309.4" y2="108.8"/>
	<line class="st0" x1="309.4" y1="51.3" x2="292.9" y2="51.3"/>
	<line class="st0" x1="52.1" y1="108.8" x2="32.4" y2="108.8"/>
	<line class="st0" x1="32.4" y1="51.3" x2="47.5" y2="51.3"/>
	<line class="st0" x1="190.7" y1="48.1" x2="190.7" y2="30.1"/>
	<line class="st0" x1="176.3" y1="48.1" x2="176.3" y2="30.1"/>
	<line class="st0" x1="140.2" y1="34.5" x2="126" y2="34.5"/>
</g>
<g>
	<path class="st0" d="M238.8,46.3c0,2.7-2.2,4.9-4.9,4.9c-2.7,0-4.9-2.2-4.9-4.9c0-2.7,2.2-4.9,4.9-4.9
		C236.6,41.4,238.8,43.6,238.8,46.3z"/>
	<path class="st0" d="M260.4,46.3c0,2.7-2.2,4.9-4.9,4.9c-2.7,0-4.9-2.2-4.9-4.9c0-2.7,2.2-4.9,4.9-4.9
		C258.2,41.4,260.4,43.6,260.4,46.3z"/>
	<path class="st0" d="M282,46.3c0,2.7-2.2,4.9-4.9,4.9c-2.7,0-4.9-2.2-4.9-4.9c0-2.7,2.2-4.9,4.9-4.9C279.8,41.4,282,43.6,282,46.3z
		"/>
</g>
<g>
	<path class="st0" d="M175.2,297.8c0,2-1.6,3.6-3.6,3.6c-2,0-3.6-1.6-3.6-3.6c0-2,1.6-3.6,3.6-3.6
		C173.6,294.2,175.2,295.8,175.2,297.8z"/>
	<circle class="st0" cx="79.9" cy="296.7" r="3.6"/>
	<path class="st0" d="M265.9,297.8c0,2-1.6,3.6-3.6,3.6c-2,0-3.6-1.6-3.6-3.6c0-2,1.6-3.6,3.6-3.6
		C264.3,294.2,265.9,295.8,265.9,297.8z"/>
	<circle class="st0" cx="95.7" cy="43" r="3.6"/>
	<path class="st0" d="M71.6,43c0,2-1.6,3.6-3.6,3.6c-2,0-3.6-1.6-3.6-3.6s1.6-3.6,3.6-3.6C70,39.4,71.6,41,71.6,43z"/>
</g>
<circle class="st1" cx="298.6" cy="299.5" r="4.3"/>
<circle class="st1" cx="298.6" cy="299.5" r="4.3"/>
<path class="st0" d="M180.2,202.3c0,3.2-2.6,5.8-5.8,5.8c-3.2,0-5.8-2.6-5.8-5.8c0-3.2,2.6-5.8,5.8-5.8
	C177.7,196.6,180.2,199.1,180.2,202.3z"/>
<g>
	<polyline class="st0" points="32.4,161.8 32.5,163 32.8,164.2 33.3,165.4 34,166.4 34.9,167.3 36,168 37.1,168.5 38.3,168.8 
		39.5,169 	"/>
	<line class="st0" x1="302.2" y1="30.1" x2="39.5" y2="30.1"/>
	<polyline class="st0" points="39.5,30.1 38.3,30.1 37.1,30.5 36,31 34.9,31.7 34,32.6 33.3,33.7 32.8,34.8 32.5,36 32.4,37.3 	"/>
	<line class="st0" x1="32.4" y1="37.3" x2="32.4" y2="161.8"/>
	<polyline class="st0" points="32.4,303.1 32.5,304.4 32.8,305.6 33.3,306.7 34,307.7 34.9,308.6 36,309.4 37.1,309.9 38.3,310.2 
		39.5,310.3 	"/>
	<line class="st0" x1="39.5" y1="310.3" x2="302.2" y2="310.3"/>
	<polyline class="st0" points="302.2,310.3 303.5,310.2 304.7,309.9 305.8,309.4 306.9,308.6 307.8,307.7 308.5,306.7 309,305.6 
		309.4,304.4 309.4,303.1 	"/>
	<polyline class="st0" points="309.4,179 309.4,177.7 309,176.5 308.5,175.4 307.8,174.3 306.9,173.5 305.8,172.7 304.7,172.2 
		303.5,171.8 302.2,171.8 	"/>
	<polyline class="st0" points="302.2,169 303.5,168.8 304.7,168.5 305.8,168 306.9,167.3 307.8,166.4 308.5,165.4 309,164.2 
		309.4,163 309.4,161.8 	"/>
	<line class="st0" x1="309.4" y1="161.8" x2="309.4" y2="37.3"/>
	<polyline class="st0" points="309.4,37.3 309.4,36 309,34.8 308.5,33.7 307.8,32.6 306.9,31.7 305.8,31 304.7,30.5 303.5,30.1 
		302.2,30.1 	"/>
	<polyline class="st0" points="39.5,171.8 38.3,171.8 37.1,172.2 36,172.7 34.9,173.5 34,174.3 33.3,175.4 32.8,176.5 32.5,177.7 
		32.4,179 	"/>
	<line class="st0" x1="39.5" y1="169" x2="39.5" y2="171.8"/>
	<line class="st0" x1="302.2" y1="169" x2="302.2" y2="171.8"/>
	<line class="st0" x1="32.4" y1="179" x2="32.4" y2="303.1"/>
	<line class="st0" x1="309.4" y1="179" x2="309.4" y2="303.1"/>
</g>
<g>
	<path class="st2" d="M47.5,40.9c0,2.4-1.9,4.3-4.3,4.3c-2.4,0-4.3-1.9-4.3-4.3c0-2.4,1.9-4.3,4.3-4.3
		C45.5,36.5,47.5,38.5,47.5,40.9z"/>
	<path class="st2" d="M47.5,158.2c0,2.4-1.9,4.3-4.3,4.3c-2.4,0-4.3-1.9-4.3-4.3c0-2.4,1.9-4.3,4.3-4.3
		C45.5,153.8,47.5,155.8,47.5,158.2z"/>
	<path class="st2" d="M303,158.2c0,2.4-1.9,4.3-4.3,4.3c-2.4,0-4.3-1.9-4.3-4.3c0-2.4,1.9-4.3,4.3-4.3
		C301,153.8,303,155.8,303,158.2z"/>
	<path class="st2" d="M303,40.9c0,2.4-1.9,4.3-4.3,4.3c-2.4,0-4.3-1.9-4.3-4.3c0-2.4,1.9-4.3,4.3-4.3C301,36.5,303,38.5,303,40.9z"
		/>
	<path class="st2" d="M47.5,299.5c0,2.4-1.9,4.3-4.3,4.3c-2.4,0-4.3-1.9-4.3-4.3c0-2.4,1.9-4.3,4.3-4.3
		C45.5,295.2,47.5,297.1,47.5,299.5z"/>
	<circle class="st2" cx="298.6" cy="299.5" r="4.3"/>
	<path class="st2" d="M47.5,182.2c0,2.4-1.9,4.3-4.3,4.3c-2.4,0-4.3-1.9-4.3-4.3c0-2.4,1.9-4.3,4.3-4.3
		C45.5,177.9,47.5,179.8,47.5,182.2z"/>
	<path class="st2" d="M303,182.2c0,2.4-1.9,4.3-4.3,4.3c-2.4,0-4.3-1.9-4.3-4.3c0-2.4,1.9-4.3,4.3-4.3
		C301,177.9,303,179.8,303,182.2z"/>
</g>
<path class="st3" d="M332.9,325c0,4-3.2,7.2-7.2,7.2H16.1c-4,0-7.2-3.2-7.2-7.2V15.4c0-4,3.2-7.2,7.2-7.2h309.6c4,0,7.2,3.2,7.2,7.2
	V325z"/>
</svg>
